<?xml version="1.0" encoding="UTF-8"?>
<!DOCTYPE svg  PUBLIC '-//W3C//DTD SVG 1.1//EN'  'http://www.w3.org/Graphics/SVG/1.1/DTD/svg11.dtd'>
<svg clip-rule="evenodd" fill-rule="evenodd" stroke-linejoin="round" stroke-miterlimit="2" version="1.1" viewBox="0 0 80 80" xml:space="preserve" xmlns="http://www.w3.org/2000/svg">
    <g transform="translate(-5451.9 -453.91)">
        <g transform="matrix(.53883 0 0 1.0593 2481.9 -89.196)">
            <g transform="matrix(.38567 0 0 .19618 5511.9 512.71)">
                <g fill="#fff" fill-rule="nonzero">
                    <path d="m192.48 0c-106.3 0-192.48 86.185-192.48 192.48 0 106.31 86.185 192.48 192.48 192.48 106.31 0 192.48-86.173 192.48-192.48 0-106.3-86.173-192.48-192.48-192.48zm0 360.91c-93.018 0-168.42-75.406-168.42-168.42s75.406-168.42 168.42-168.42 168.42 75.406 168.42 168.42-75.406 168.42-168.42 168.42z"/>
                    <path d="m300.76 180.23h-187.59l62.558-63.46c4.692-4.74 4.692-12.439 0-17.179-4.704-4.74-12.319-4.74-17.011 0l-82.997 84.2c-2.25 2.25-3.537 5.414-3.537 8.59 0 3.164 1.299 6.328 3.525 8.59l82.997 84.2c4.704 4.752 12.319 4.74 17.011 0 4.704-4.752 4.704-12.439 0-17.191l-62.558-63.46h187.6c6.641 0 12.03-5.438 12.03-12.151 0-6.701-5.39-12.139-12.03-12.139z"/>
                </g>
            </g>
        </g>
    </g>
</svg>
