<?xml version="1.0" encoding="UTF-8"?>
<!DOCTYPE svg  PUBLIC '-//W3C//DTD SVG 1.1//EN'  'http://www.w3.org/Graphics/SVG/1.1/DTD/svg11.dtd'>
<svg clip-rule="evenodd" fill-rule="evenodd" stroke-linejoin="round" stroke-miterlimit="2" version="1.1" viewBox="0 0 500 212" xml:space="preserve" xmlns="http://www.w3.org/2000/svg" fill="#fff">
    <g transform="matrix(.48693 0 0 .51094 -1723.4 323.58)">
        <g transform="matrix(1.2385 0 0 1.1804 2834.5 -890.35)" fill-rule="nonzero">
            <path d="m594.45 456.63c-7.369-6.466-13.455-15.051-18.256-25.756-4.801-10.706-7.202-23.976-7.202-39.81 0-8.476 0.447-16.227 1.34-23.252 0.893-7.026 2.345-14.219 4.355-21.578 4.019-15.615 10.384-31.116 19.093-46.504 8.71-15.388 18.871-29.159 30.483-41.315 11.613-12.155 24.118-21.969 37.518-29.441 13.399-7.472 26.909-11.209 40.532-11.209 7.593 0 14.515 1.308 20.768 3.923 6.253 2.616 11.557 5.965 15.912 10.05 4.354 4.084 7.704 8.75 10.049 13.998s3.517 10.552 3.517 15.911c0 8.04-2.01 16.079-6.029 24.119-4.02 8.039-9.045 15.241-15.074 21.606-6.03 6.364-12.562 11.501-19.596 15.409-7.035 3.908-13.679 5.862-19.932 5.862-2.903 0-5.527-0.503-7.871-1.508-2.345-1.005-3.518-2.289-3.518-3.852s2.903-3.238 8.71-5.025c6.029-2.009 11.612-5.247 16.749-9.714 5.136-4.466 9.658-9.547 13.566-15.241 3.908-5.695 6.979-11.501 9.212-17.419s3.35-11.333 3.35-16.246c0-7.817-1.452-14.46-4.355-19.932-2.903-5.471-6.7-8.207-11.389-8.207-3.797 0-8.821 1.227-15.074 3.68s-12.394 5.798-18.424 10.034c-11.166 7.805-21.383 17.227-30.65 28.266-9.268 11.038-17.196 23.024-23.784 35.958-6.588 12.933-11.668 26.646-15.241 41.139s-5.36 29.21-5.36 44.151c0 22.747 4.467 39.249 13.399 49.506 8.933 10.257 20.546 15.386 34.838 15.386 13.176 0 26.742-3.908 40.7-11.724 13.957-7.817 27.189-20.434 39.694-37.853 4.913-7.146 10.161-15.632 15.744-25.458s10.664-19.205 15.242-28.138 8.318-16.526 11.222-22.779c2.903-6.252 4.354-9.379 4.354-9.379 0.893 0 1.731 0.447 2.513 1.34 0.781 0.893 1.172 2.01 1.172 3.35 0 1.116-0.447 3.126-1.34 6.029s-2.066 6.309-3.517 10.217c-1.452 3.908-3.182 8.151-5.192 12.729s-4.132 9.212-6.365 13.902c-4.243 8.933-8.374 17.028-12.394 24.286-4.02 7.257-8.151 13.957-12.394 20.098s-8.71 11.948-13.399 17.419c-4.69 5.471-9.826 10.887-15.409 16.246-6.476 6.03-12.45 10.974-17.921 14.834-5.472 3.859-10.831 6.868-16.079 9.026s-10.496 3.578-15.744 4.26-10.887 1.023-16.917 1.023c-10.049 0-20.098-2.286-30.148-6.859-10.049-4.573-18.535-9.759-25.458-15.558z"/>
            <path d="m824.24 403.68c0-7.147 0.782-14.907 2.345-23.281 1.563-8.375 4.243-19.15 8.04-32.326 1.786-5.806 3.238-10.886 4.354-15.241 1.117-4.355 1.675-7.09 1.675-8.207 0-0.893-0.335-1.34-1.005-1.34-1.563 0-4.019 2.847-7.369 8.542s-7.035 13.12-11.054 22.276c-4.02 9.156-8.04 19.429-12.06 30.818-4.019 11.389-7.369 22.778-10.049 34.168-1.786 7.592-3.629 12.45-5.527 14.571-1.898 2.122-5.08 3.182-9.547 3.182-2.456 0-4.69-0.558-6.699-1.675-2.01-1.116-4.355-2.903-7.035-5.359l-5.695-5.025-0.334-8.709v-6.365c-0.447-17.865 2.233-42.207 8.039-73.025 6.476-35.507 12.673-61.412 18.591-77.714 5.918-16.303 12.004-24.454 18.256-24.454 3.127 0 6.588 0.949 10.385 2.848 3.796 1.898 5.694 4.298 5.694 7.202 0 2.903-1.005 9.156-3.014 18.758-2.68 11.613-5.137 23.17-7.37 34.67-2.233 11.501-4.187 21.997-5.862 31.488s-2.959 17.475-3.852 23.951c-0.894 6.476-1.34 10.496-1.34 12.059v0.335c0.223 0.224 0.614-0.391 1.172-1.842 0.559-1.452 1.173-3.182 1.843-5.192 2.679-7.37 5.583-14.181 8.709-20.434s6.3-11.612 9.521-16.079c3.22-4.466 6.377-7.983 9.471-10.552 3.093-2.568 5.966-3.852 8.617-3.852 3.315 0 6.521 0.67 9.618 2.01s5.762 3.182 7.995 5.527 4.02 4.969 5.36 7.872c1.339 2.903 2.009 6.03 2.009 9.38 0 6.922-1.005 14.85-3.014 23.783-3.35 14.292-5.695 25.067-7.035 32.325s-2.01 12.562-2.01 15.912c0 5.582 1.005 8.374 3.015 8.374 1.563 0 3.517-2.01 5.862-6.03 2.345-4.019 4.913-9.1 7.705-15.241 2.791-6.141 5.527-12.785 8.206-19.931 2.68-7.146 5.193-13.79 7.537-19.931 2.345-6.142 4.299-11.222 5.863-15.242 1.563-4.019 2.568-6.029 3.014-6.029 2.68 0 4.02 1.228 4.02 3.684 0 0.67-0.223 2.457-0.67 5.36-0.446 2.903-1.228 5.918-2.345 9.044-2.68 7.593-5.638 16.526-8.877 26.799-3.238 10.272-6.922 20.042-11.054 29.31-4.131 9.268-8.765 17.14-13.901 23.616-5.137 6.476-10.802 9.714-16.995 9.714-3.978 0-7.459-0.949-10.442-2.847s-5.414-4.411-7.291-7.537-3.258-6.755-4.143-10.887c-0.884-4.131-1.327-8.542-1.327-13.231z"/>
            <path d="m1018.2 332.33c0 1.116-0.73 4.745-2.18 10.886-1.45 6.142-3.29 13.064-5.53 20.769-2.23 7.704-4.57 15.465-7.03 23.281s-4.803 14.069-7.036 18.758c-5.583 11.836-10.496 20.043-14.739 24.621s-9.491 6.867-15.744 6.867c-7.593 0-13.902-2.345-18.927-7.034-5.024-4.69-8.43-10.943-10.216-18.759l-1.34-5.695-3.35 9.38c-1.787 4.02-3.461 7.537-5.025 10.552-1.563 3.014-3.238 5.471-5.024 7.369-1.787 1.898-3.797 3.294-6.03 4.187-2.233 0.894-4.801 1.34-7.704 1.34-9.156 0-16.582-3.908-22.276-11.724-5.695-7.816-8.542-18.424-8.542-31.823 0-11.389 1.395-22.276 4.187-32.66 2.791-10.384 6.699-19.485 11.724-27.301s10.943-14.069 17.754-18.758c6.811-4.69 14.236-7.035 22.276-7.035 2.903 0 6.029 0.838 9.379 2.512 3.35 1.675 6.253 3.294 8.71 4.858l3.684 2.344 4.02-3.349c2.233-2.234 4.355-3.35 6.365-3.35s4.075 0.391 6.197 1.172c2.121 0.782 4.019 1.787 5.694 3.015s3.071 2.512 4.188 3.852c1.116 1.34 1.674 2.68 1.674 4.02 0 0.447-0.39 2.959-1.172 7.537s-1.842 9.77-3.182 15.576c-2.01 8.487-3.573 15.465-4.69 20.937-1.117 5.471-2.01 10.049-2.68 13.734-0.67 3.684-1.116 6.922-1.34 9.714-0.223 2.791-0.335 5.75-0.335 8.877 0 6.253 0.335 10.161 1.005 11.724s1.229 2.345 1.675 2.345c2.01 0 6.086-5.918 12.227-17.754s13.231-29.255 21.273-52.256c1.34-3.573 2.34-6.309 3.01-8.207s1.29-3.294 1.85-4.187c0.55-0.894 1.11-1.452 1.67-1.675 0.56-0.224 1.28-0.335 2.18-0.335 2.01 0 3.12 0.558 3.35 1.675zm-79.392 35.842c2.009-6.253 3.628-12.897 4.857-19.931 1.228-7.035 1.842-12.785 1.842-17.251 0-5.137-0.782-7.705-2.345-7.705-2.456 0-5.639 2.736-9.547 8.207s-7.704 12.338-11.389 20.601-6.867 17.251-9.547 26.966c-2.68 9.714-4.019 18.814-4.019 27.3 0 4.243 0.39 6.923 1.172 8.04 0.782 1.116 1.731 1.675 2.847 1.675 1.34 0 3.127-1.619 5.36-4.857 2.233-3.239 4.578-7.258 7.034-12.06 2.457-4.801 4.913-9.993 7.37-15.576 2.456-5.583 4.578-10.719 6.365-15.409z"/>
            <path d="m1050.4 289.78c-2.24 10.72-4.42 21.551-6.54 32.493-2.12 10.943-3.96 21.383-5.52 31.321-1.57 9.937-2.8 19.093-3.69 27.468-0.89 8.374-1.34 15.353-1.34 20.936 0 3.796 0.17 6.755 0.5 8.877 0.34 2.121 0.84 3.182 1.51 3.182 0.89 0 2.51-1.787 4.86-5.36 2.34-3.573 4.8-7.928 7.37-13.064s5.08-10.719 7.54-16.749c2.45-6.029 4.35-11.501 5.69-16.414 2.9-10.495 5.14-18.535 6.7-24.118s3.57-8.374 6.03-8.374c3.13 0 4.69 1.451 4.69 4.354 0 1.117-0.56 3.908-1.68 8.375-1.11 4.466-2.45 9.379-4.02 14.739-1.56 5.359-3.07 10.496-4.52 15.409s-2.51 8.374-3.18 10.384c-2.46 6.476-5.19 13.12-8.21 19.931-3.01 6.811-6.08 13.008-9.21 18.591s-6.42 10.106-9.88 13.567-6.98 5.192-10.55 5.192c-1.79 0-3.46-0.335-5.03-1.005-4.91-1.34-8.93-3.126-12.06-5.359-3.12-2.234-5.58-4.969-7.37-8.207-1.78-3.239-3.012-7.035-3.682-11.39-0.67-4.354-1.005-9.546-1.005-15.576 0-8.933 0.894-19.708 2.677-32.325 1.79-12.618 3.91-25.179 6.37-37.685 2.45-12.506 4.97-24.119 7.54-34.838 2.56-10.719 4.74-18.87 6.53-24.453 1.78-6.253 3.24-11.445 4.35-15.577 1.12-4.131 2.18-7.425 3.18-9.881 1.01-2.457 2.07-4.132 3.19-5.025 1.11-0.893 2.68-1.34 4.69-1.34s4.18 0.223 6.53 0.67c2.34 0.447 4.52 1.172 6.53 2.177s3.69 2.178 5.03 3.518c1.33 1.339 2 2.903 2 4.689 0 0.67-0.22 2.736-0.67 6.197-0.44 3.462-1 7.426-1.67 11.892s-1.34 8.821-2.01 13.064-1.23 7.481-1.67 9.714z"/>
            <path d="m1114.7 266.34c-6.48 26.575-11.16 48.069-14.07 64.483-2.9 16.414-4.35 28.529-4.35 36.345v0.67c1.34 0 3.51-1.786 6.53-5.36 3.01-3.573 6.2-7.927 9.55-13.064 3.34-5.136 6.36-10.607 9.04-16.414 2.68-5.806 4.36-10.942 5.02-15.408 0.45-3.574 0.95-5.807 1.51-6.7s1.96-1.34 4.19-1.34c5.14 0 9.16 2.01 12.06 6.03 2.9 4.019 4.35 8.262 4.35 12.729 0 4.466-1.28 9.044-3.85 13.734s-6.76 9.938-12.56 15.744l-9.71 9.379 1.67 7.705c2.46 11.389 5.41 20.88 8.88 28.473 3.46 7.592 6.42 11.389 8.87 11.389 0.67 0 1.57-0.67 2.68-2.01 1.12-1.34 2.35-3.126 3.69-5.36 1.34-2.233 2.68-4.633 4.02-7.202 1.34-2.568 2.45-5.08 3.35-7.537 6.03-16.302 10.21-28.752 12.56-37.35 2.34-8.597 3.91-14.739 4.69-18.423 0.78-3.685 1.28-5.751 1.51-6.197 0.22-0.447 1.34-0.67 3.35-0.67 1.78 0 2.68 1.451 2.68 4.354 0 2.904-0.67 7.147-2.01 12.73-3.8 15.185-7.48 28.473-11.06 39.862-3.57 11.389-7.26 20.936-11.05 28.64-3.8 7.705-7.93 13.511-12.4 17.419-4.46 3.908-9.49 5.862-15.07 5.862-7.82 0-14.12-3.908-18.93-11.724-4.8-7.816-8.2-18.2-10.21-31.153-0.67-4.466-1.4-7.648-2.18-9.547-0.78-1.898-1.4-2.847-1.84-2.847-0.45 0-1.06 1.842-1.85 5.527-0.78 3.685-1.61 8.095-2.51 13.232-0.89 5.136-1.62 10.328-2.17 15.576-0.56 5.248-0.84 9.435-0.84 12.562 0 2.68-1.01 4.913-3.02 6.699-2.01 1.787-4.8 2.68-8.37 2.68-13.62 0-20.44-8.933-20.44-26.798 0-10.943 1.23-25.737 3.69-44.384 2.46-18.648 6.59-40.923 12.39-66.828 2.68-12.283 5.25-22.555 7.71-30.818 2.45-8.263 4.86-14.907 7.2-19.931 2.34-5.025 4.69-8.542 7.03-10.552 2.35-2.01 4.86-3.015 7.54-3.015 4.47 0 8.21 1.117 11.22 3.35 3.02 2.233 4.52 4.689 4.52 7.369 0 3.127-1 9.156-3.01 18.089z"/>
            <path d="m1267.1 320.94c0 0.447-0.51 4.076-1.51 10.887-1.01 6.811-2.29 14.683-3.85 23.616-3.58 21.438-6.26 38.131-8.04 50.079-1.79 11.948-2.57 18.145-2.35 18.591 0 0.224 0.56-0.502 1.68-2.177 1.11-1.675 2.51-3.797 4.18-6.365 1.68-2.568 3.41-5.471 5.19-8.709 1.79-3.238 3.36-6.197 4.7-8.877 1.11-2.456 2.62-5.862 4.52-10.217 1.9-4.354 3.79-9.1 5.69-14.236 1.9-5.137 3.85-10.385 5.86-15.744 2.01-5.36 3.86-10.161 5.53-14.404 1.68-4.243 3.13-7.761 4.36-10.552 1.22-2.791 1.95-4.187 2.17-4.187 2.91 0 4.36 1.116 4.36 3.35 0 3.349-1.06 8.653-3.19 15.911-2.12 7.258-4.8 15.241-8.03 23.951-3.24 8.709-6.7 17.363-10.39 25.961-3.68 8.597-7.2 15.688-10.55 21.271-1.12 2.009-2.9 4.968-5.36 8.876-2.46 3.909-4.8 7.537-7.03 10.887l-8.04 12.394-3.69 17.084c-2.68 11.836-5.47 21.662-8.37 29.478-2.91 7.816-6.37 14.125-10.39 18.926-4.02 4.802-8.76 8.207-14.23 10.217s-12.23 3.015-20.27 3.015c-4.47-0.447-8.15-1.284-11.05-2.512-2.91-1.229-4.81-3.853-5.7-7.872 0-4.69 0.23-8.766 0.67-12.227 0.45-3.461 1.51-6.867 3.18-10.217 1.68-3.35 4.3-7.034 7.88-11.054 3.57-4.02 8.37-9.044 14.4-15.074l11.05-10.719 4.36-26.463c1.11-7.37 2.12-13.79 3.01-19.262 0.9-5.471 1.34-8.318 1.34-8.542 0 0-0.56 1.005-1.67 3.015-1.12 2.01-2.46 4.355-4.02 7.035-1.57 2.68-3.24 5.304-5.03 7.872-1.78 2.568-3.23 4.522-4.35 5.862l-4.69 5.359-6.7 0.335h-2.34c-8.94 0-15.52-3.405-19.77-10.216-4.24-6.812-6.36-16.805-6.36-29.981 0-8.039 0.61-17.139 1.84-27.3s2.9-19.764 5.02-28.808c2.13-9.045 4.64-16.638 7.54-22.779s6.03-9.212 9.38-9.212c2.01 0 4.19 0.335 6.53 1.005 2.35 0.67 4.47 1.619 6.37 2.847 1.9 1.229 3.51 2.624 4.85 4.188 1.34 1.563 2.01 3.349 2.01 5.359 0 2.68-0.44 7.593-1.34 14.739-0.89 7.146-2.56 17.977-5.02 32.493-1.12 7.146-1.95 13.288-2.51 18.424s-0.84 9.379-0.84 12.729c0 3.796 0.33 6.699 1.01 8.709 0.67 2.01 1.33 3.015 2 3.015 1.34 0 3.24-2.01 5.7-6.029 2.46-4.02 5.13-9.38 8.04-16.079 2.9-6.7 5.8-14.46 8.71-23.281 2.9-8.821 5.58-18.145 8.04-27.971 2.23-8.933 4.46-15.688 6.7-20.266 2.23-4.578 5.13-6.867 8.71-6.867 2.68 0 5.19 0.391 7.53 1.172 2.35 0.782 4.47 1.787 6.37 3.015 1.9 1.229 3.4 2.457 4.52 3.685s1.68 2.177 1.68 2.847zm-62.65 171.84c1.79-7.816 2.35-11.835 1.68-12.059-0.67 0-1.79 1.005-3.35 3.015-4.24 4.913-7.87 9.938-10.89 15.074-3.01 5.136-4.3 8.598-3.85 10.384 0.22 2.903 2.46 3.015 6.7 0.335 2.46-1.563 4.36-3.461 5.69-5.694 1.34-2.233 2.68-5.918 4.02-11.055z"/>
            <path d="m1332.4 279.4c-1.56 2.233-2.67 3.573-3.34 4.02s-2.01 0.67-4.02 0.67c-2.91 0-5.03-0.67-6.37-2.01s-1.79-2.568-1.34-3.685c0.23-0.446 0.62-1.73 1.17-3.852 0.56-2.122 1.18-4.411 1.85-6.867 1.11-4.243 1.84-9.156 2.17-14.739 0.34-5.583 0.28-10.719-0.16-15.409-0.23-1.34-0.17-2.177 0.16-2.512 0.34-0.335 1.06-0.614 2.18-0.838 2.23-0.223 4.75 0.279 7.54 1.508 2.79 1.228 4.97 2.847 6.53 4.857 3.57 3.573 4.8 8.821 3.68 15.744-0.22 1.563-0.66 3.405-1.33 5.527-0.68 2.121-1.51 4.243-2.52 6.364-1 2.122-2.06 4.188-3.18 6.198-1.12 2.009-2.12 3.684-3.02 5.024z"/>
            <path d="m1395.7 331.66c1.56 0.67 2.34 2.233 2.34 4.689 0 2.457-0.72 5.36-2.18 8.71-1.45 3.349-3.46 7.034-6.03 11.054-2.56 4.02-5.58 8.151-9.04 12.394s-7.2 8.374-11.22 12.394l-7.71 7.705v6.699c0 6.7-0.55 12.897-1.67 18.591-1.12 5.695-3.02 10.552-5.7 14.572s-6.25 6.923-10.71 8.709c-4.47 1.787-10.05 2.233-16.75 1.34-3.13-0.446-6.09-1.507-8.88-3.182s-5.19-3.629-7.2-5.862-3.58-4.634-4.69-7.202c-1.12-2.568-1.68-4.857-1.68-6.867 0-4.02 1.18-7.537 3.52-10.552s4.86-5.639 7.54-7.872 5.19-4.02 7.53-5.36c2.35-1.339 3.52-2.568 3.52-3.684 0-0.67-0.11-2.01-0.33-4.02-0.23-2.01-0.51-4.299-0.84-6.867-0.34-2.568-0.62-5.36-0.84-8.374-0.22-3.015-0.33-5.863-0.33-8.542 0-7.593 0.89-14.628 2.68-21.104 1.78-6.476 4.13-12.171 7.03-17.084s6.2-8.765 9.88-11.556c3.69-2.792 7.43-4.188 11.22-4.188 1.79 0 3.74 0.335 5.87 1.005 2.12 0.67 4.07 1.563 5.86 2.68 1.78 1.117 3.24 2.289 4.35 3.517 1.12 1.229 1.68 2.513 1.68 3.853 0 0-0.78 0.949-2.35 2.847-1.56 1.898-3.23 4.634-5.02 8.207s-3.46 7.816-5.03 12.729c-1.56 4.913-2.34 10.161-2.34 15.744 0 1.34 0.06 3.07 0.17 5.192s0.39 4.187 0.83 6.197c0.23 2.457 0.56 4.801 1.01 7.035 0.22 0 1.06-0.559 2.51-1.675 1.45-1.117 3.07-2.568 4.86-4.355s3.57-3.685 5.36-5.695c1.78-2.009 3.24-3.796 4.35-5.359 1.34-1.787 2.85-4.132 4.53-7.035 1.67-2.903 3.29-5.806 4.85-8.709 1.57-2.903 2.91-5.416 4.02-7.537 1.12-2.122 1.79-3.406 2.01-3.852h1.51c0.56 0 1.06 0.223 1.51 0.67zm-70.35 83.074c0.89-2.233 1.45-4.355 1.68-6.365 0.22-2.01 0-3.014-0.67-3.014s-2.01 0.725-4.02 2.177c-2.01 1.451-3.24 2.624-3.69 3.517-1.11 1.787-1.34 3.517-0.67 5.192s1.9 2.513 3.69 2.513c0.89 0 2.12-1.34 3.68-4.02z"/>
        </g>
        <g transform="matrix(1.398 0 0 1.3323 -564.58 -1414.6)" fill-rule="nonzero">
            <path d="m2956.6 896.07-21.17-62.782h6.82l19.82 59.105h-3.41l20.45-59.105h6.1l20.18 59.105h-3.23l20-59.105h6.37l-21.16 62.782h-7l-19.28-56.056h1.79l-19.37 56.056h-6.91z"/>
            <path d="m3055.7 896.52c-4.91 0-9.21-1.031-12.92-3.094-3.7-2.063-6.61-4.903-8.7-8.52-2.09-3.618-3.14-7.758-3.14-12.422s1-8.79 3.01-12.377c2-3.588 4.75-6.413 8.25-8.476s7.43-3.094 11.79-3.094c4.43 0 8.36 1.001 11.8 3.004 3.44 2.004 6.14 4.814 8.11 8.431 1.98 3.618 2.96 7.788 2.96 12.512 0 0.299-0.01 0.613-0.04 0.942-0.03 0.328-0.05 0.672-0.05 1.031h-40.98v-4.754h37.58l-2.51 1.884c0-3.408-0.74-6.443-2.2-9.103-1.47-2.661-3.45-4.739-5.97-6.234-2.51-1.495-5.41-2.242-8.7-2.242-3.22 0-6.12 0.747-8.7 2.242-2.57 1.495-4.57 3.588-6 6.278-1.44 2.691-2.16 5.77-2.16 9.238v0.987c0 3.587 0.79 6.742 2.38 9.462 1.58 2.721 3.8 4.843 6.64 6.368s6.08 2.287 9.73 2.287c2.87 0 5.54-0.508 8.02-1.525 2.49-1.016 4.62-2.571 6.42-4.663l3.58 4.125c-2.09 2.512-4.7 4.425-7.84 5.74-3.14 1.316-6.6 1.973-10.36 1.973z"/>
            <path d="m3114.2 896.52c-4.12 0-7.83-0.941-11.12-2.825-3.28-1.883-5.89-4.619-7.8-8.206-1.91-3.588-2.87-7.923-2.87-13.005 0-5.142 0.97-9.492 2.92-13.05 1.94-3.558 4.55-6.263 7.84-8.117 3.29-1.853 6.97-2.78 11.03-2.78 4.49 0 8.51 1.001 12.07 3.004 3.56 2.004 6.35 4.799 8.38 8.386 2.04 3.588 3.05 7.773 3.05 12.557 0 4.723-1.01 8.894-3.05 12.511-2.03 3.618-4.82 6.443-8.38 8.476s-7.58 3.049-12.07 3.049zm-24.3-0.448v-66.549h6.37v33.364l-0.9 9.507 0.63 9.507v14.171h-6.1zm23.86-5.202c3.35 0 6.33-0.762 8.96-2.287 2.64-1.525 4.73-3.677 6.28-6.458 1.56-2.78 2.34-5.994 2.34-9.641 0-3.707-0.78-6.936-2.34-9.687-1.55-2.75-3.64-4.888-6.28-6.412-2.63-1.525-5.61-2.287-8.96-2.287s-6.36 0.762-9.02 2.287c-2.66 1.524-4.75 3.662-6.28 6.412-1.52 2.751-2.28 5.98-2.28 9.687 0 3.647 0.76 6.861 2.28 9.641 1.53 2.781 3.62 4.933 6.28 6.458s5.67 2.287 9.02 2.287z"/>
            <path d="m3221.4 833.29h6.55v62.782h-6.55v-62.782zm-39.28 62.782h-6.64v-62.782h6.64v62.782zm39.91-28.97h-40.63v-5.829h40.63v5.829z"/>
            <path d="m3266.3 896.52c-4.55 0-8.63-1.031-12.24-3.094-3.62-2.063-6.48-4.903-8.57-8.52-2.09-3.618-3.14-7.758-3.14-12.422 0-4.724 1.05-8.879 3.14-12.467 2.09-3.587 4.93-6.398 8.52-8.431s7.68-3.049 12.29-3.049c4.66 0 8.8 1.016 12.42 3.049s6.46 4.844 8.52 8.431c2.06 3.588 3.09 7.743 3.09 12.467 0 4.664-1.03 8.804-3.09 12.422-2.06 3.617-4.92 6.457-8.57 8.52-3.64 2.063-7.77 3.094-12.37 3.094zm0-5.65c3.4 0 6.42-0.762 9.06-2.287 2.63-1.525 4.71-3.677 6.23-6.458 1.52-2.78 2.29-5.994 2.29-9.641 0-3.707-0.77-6.936-2.29-9.687-1.52-2.75-3.6-4.888-6.23-6.412-2.64-1.525-5.62-2.287-8.97-2.287s-6.34 0.762-8.97 2.287c-2.63 1.524-4.73 3.662-6.28 6.412-1.55 2.751-2.33 5.98-2.33 9.687 0 3.647 0.78 6.861 2.33 9.641 1.55 2.781 3.65 4.933 6.28 6.458s5.59 2.287 8.88 2.287z"/>
            <path d="m3322.8 896.52c-4 0-7.5-0.747-10.49-2.242s-5.31-3.737-6.95-6.726c-1.65-2.99-2.47-6.727-2.47-11.212v-27.355h6.37v26.638c0 5.023 1.24 8.804 3.72 11.346 2.48 2.541 5.97 3.811 10.45 3.811 3.29 0 6.14-0.672 8.56-2.018 2.43-1.345 4.28-3.303 5.57-5.874 1.28-2.571 1.92-5.651 1.92-9.238v-24.665h6.37v47.087h-6.1v-12.915l0.99 2.332c-1.5 3.468-3.81 6.173-6.95 8.117-3.14 1.943-6.8 2.914-10.99 2.914z"/>
            <path d="m3376.3 896.52c-3.89 0-7.57-0.553-11.04-1.659-3.46-1.106-6.18-2.496-8.16-4.17l2.87-5.023c1.92 1.435 4.37 2.676 7.36 3.722 2.99 1.047 6.13 1.57 9.41 1.57 4.49 0 7.72-0.703 9.69-2.108s2.96-3.274 2.96-5.606c0-1.733-0.55-3.094-1.66-4.08-1.1-0.987-2.55-1.734-4.35-2.243-1.79-0.508-3.8-0.941-6.01-1.3s-4.41-0.777-6.59-1.256c-2.18-0.478-4.17-1.181-5.96-2.107-1.8-0.927-3.25-2.198-4.35-3.812-1.11-1.615-1.66-3.767-1.66-6.458 0-2.571 0.71-4.873 2.15-6.906 1.43-2.033 3.54-3.632 6.32-4.798s6.18-1.749 10.18-1.749c3.05 0 6.1 0.403 9.15 1.211 3.05 0.807 5.56 1.868 7.53 3.184l-2.78 5.112c-2.09-1.435-4.33-2.467-6.72-3.094-2.4-0.628-4.79-0.942-7.18-0.942-4.24 0-7.37 0.732-9.37 2.197s-3 3.334-3 5.606c0 1.794 0.55 3.199 1.65 4.215 1.11 1.017 2.58 1.809 4.4 2.377s3.83 1.031 6.01 1.39 4.36 0.792 6.55 1.301c2.18 0.508 4.18 1.195 6 2.062 1.83 0.867 3.29 2.093 4.4 3.678 1.1 1.584 1.66 3.662 1.66 6.233 0 2.751-0.76 5.127-2.29 7.13-1.52 2.003-3.74 3.558-6.64 4.664s-6.41 1.659-10.53 1.659z"/>
            <path d="m3427.4 896.52c-4.9 0-9.21-1.031-12.92-3.094-3.7-2.063-6.6-4.903-8.7-8.52-2.09-3.618-3.14-7.758-3.14-12.422s1.01-8.79 3.01-12.377c2-3.588 4.75-6.413 8.25-8.476s7.43-3.094 11.79-3.094c4.43 0 8.36 1.001 11.8 3.004 3.44 2.004 6.14 4.814 8.12 8.431 1.97 3.618 2.96 7.788 2.96 12.512 0 0.299-0.02 0.613-0.05 0.942-0.03 0.328-0.05 0.672-0.05 1.031h-40.98v-4.754h37.58l-2.51 1.884c0-3.408-0.74-6.443-2.2-9.103-1.47-2.661-3.45-4.739-5.97-6.234-2.51-1.495-5.41-2.242-8.7-2.242-3.22 0-6.12 0.747-8.7 2.242-2.57 1.495-4.57 3.588-6 6.278-1.44 2.691-2.16 5.77-2.16 9.238v0.987c0 3.587 0.8 6.742 2.38 9.462 1.58 2.721 3.8 4.843 6.64 6.368s6.08 2.287 9.73 2.287c2.87 0 5.54-0.508 8.03-1.525 2.48-1.016 4.61-2.571 6.41-4.663l3.59 4.125c-2.1 2.512-4.71 4.425-7.85 5.74-3.14 1.316-6.59 1.973-10.36 1.973z"/>
        </g>
        <g transform="matrix(.29663 0 0 .2827 4420.9 -352.46)">
            
                
                    <path d="m39.5 377.35h160.9v44.1h-31.4c-5.2 0-9.5 4.2-9.5 9.5v27.5c0 5.2 4.2 9.5 9.5 9.5h151.2c5.2 0 9.5-4.2 9.5-9.5v-27.5c0-5.2-4.2-9.5-9.5-9.5h-31.4v-44.1h160.9c21.8 0 39.5-17.7 39.5-39.5v-277.1c0-21.8-17.7-39.5-39.5-39.5h-410.2c-21.8 0-39.5 17.7-39.5 39.5v277.1c0 21.8 17.7 39.5 39.5 39.5zm14.4-302.2h381.4v248h-381.4v-248z" fill-rule="nonzero"/>
                
            
        </g>
    </g>
</svg>
